<svg xmlns="http://www.w3.org/2000/svg" viewBox="0 0 64 64">
    <circle cx="32" cy="32" r="20" fill="var(--icon-color-accent, #4285f4)" opacity=".15"/>
    <rect x="14" y="22" width="36" height="20" rx="4" fill="none" stroke="currentColor" stroke-width="2.4"/>
    <path d="M40 32c0-1-.1-1.6-.3-2.4H33v4.4h4c-.2 1-.9 1.9-1.9 2.5v2.1h3c1.8-1.6 2.9-4 2.9-6.6z" fill="#4285f4"/>
    <path d="M33 39c1.7 0 3.2-.6 4.2-1.5l-3-2.1c-.8.6-1.9.9-2.2.9-1.7 0-3.1-1.1-3.6-2.7h-3v2.1c1.4 2.6 4.1 3.4 7.6 3.3z" fill="#34a853"/>
    <path d="M28.4 33.5c-.3-.9-.3-1.9 0-2.8v-2.1h-3a7 7 0 0 0 0 7z" fill="#fbbc04"/>
    <path d="M33 27.9c1 0 1.8.3 2.5 1l1.9-1.9C36.2 25.9 34.7 25 33 25c-2.5 0-4.7 1.4-5.6 3.6l3 2.1c.5-1.6 1.9-2.8 2.6-2.8z" fill="#ea4335"/>
</svg>
