<svg xmlns="http://www.w3.org/2000/svg" viewBox="0 0 64 64">
    <circle cx="32" cy="32" r="20" fill="var(--icon-color-accent, #000000)" opacity=".12"/>
    <rect x="16" y="22" width="32" height="20" rx="4" fill="none" stroke="currentColor" stroke-width="2.4"/>
    <path d="M31 27c1-2 3-2 4-2 0 2-1 3-2 4-1-1-2-1-2-2z" fill="currentColor"/>
    <path d="M29 30c1.6 0 2 1 3 1s1.4-1 3-1c1.4 0 2.4 1 3 2-1.6 1-1.6 4 .4 4.8-.6 1.2-1.4 2.2-2.4 2.2-1 0-1.4-.6-2.4-.6s-1.6.6-2.6.6c-1.4 0-3.6-3-3.6-5.8 0-1.8 1.2-3 3.2-3z" fill="currentColor"/>
</svg>
